<svg width="134" height="36" viewBox="0 0 134 36" fill="none" xmlns="http://www.w3.org/2000/svg">
<path fill-rule="evenodd" clip-rule="evenodd" d="M26.8052 1.82369C26.9973 1.86218 27.1894 1.90067 27.3816 1.93891C27.9651 2.05505 28.0035 2.10712 27.8855 2.69797L27.8453 2.89905C27.4817 4.71799 27.1182 6.53693 26.7474 8.35439C26.3366 10.3682 25.9549 12.3869 25.5936 14.4104C25.2683 16.232 24.9017 18.0463 24.5352 19.8607C24.3564 20.7454 24.1777 21.6301 24.0037 22.5157C23.7556 23.7786 23.5102 25.042 23.2647 26.3054C23.0533 27.393 22.842 28.4806 22.629 29.5679C22.5895 29.7696 22.5441 29.9703 22.4988 30.171C22.4402 30.4302 22.3816 30.6894 22.3356 30.9508C22.2843 31.242 22.1349 31.3932 21.8448 31.3937C20.8803 31.3957 19.9159 31.3931 18.9515 31.3905C18.852 31.3903 18.7524 31.39 18.6529 31.3898C18.3112 31.3889 18.1645 31.1559 18.0356 30.8876C17.6487 30.0824 17.2575 29.2791 16.8664 28.4759C16.7696 28.2773 16.6729 28.0786 16.5762 27.88C15.7917 26.2675 15.0068 24.6551 14.2219 23.0428C13.9074 22.3965 13.5928 21.7503 13.2782 21.1041C13.2659 21.0787 13.2539 21.053 13.242 21.0273C13.2141 20.9672 13.1862 20.9071 13.1525 20.8505C12.9848 20.569 12.8917 20.5646 12.7402 20.8727C12.2904 21.7874 11.8473 22.7053 11.4042 23.6233C11.2481 23.9468 11.0919 24.2703 10.9355 24.5937C10.7038 25.0726 10.472 25.5514 10.2402 26.0302C9.43514 27.6931 8.63008 29.356 7.82983 31.0211C7.70749 31.2756 7.5234 31.3956 7.25107 31.396C6.999 31.3964 6.74692 31.3974 6.49483 31.3983C5.72082 31.4012 4.94677 31.4041 4.17301 31.3916C3.74686 31.3847 3.67143 31.2971 3.56785 30.793C3.3682 29.8209 3.175 28.8476 2.9818 27.8742C2.91433 27.5343 2.84686 27.1944 2.77912 26.8545C2.58792 25.8951 2.39583 24.9359 2.20374 23.9767C1.69213 21.4221 1.18052 18.8674 0.685842 16.3095C0.606428 15.8988 0.508304 15.4922 0.410199 15.0857C0.26061 14.4659 0.111064 13.8462 0.0279507 13.2124C-0.0456487 12.6511 -0.00887756 12.5971 0.5753 12.5917C1.31637 12.5848 2.05749 12.5853 2.79856 12.5915C3.37276 12.5964 3.428 12.6356 3.54795 13.2179C3.65654 13.7447 3.75739 14.2731 3.85825 14.8014C3.93059 15.1805 4.00294 15.5595 4.07814 15.9379C4.73598 19.2489 5.39466 22.5598 6.06042 25.8692C6.0722 25.9277 6.08043 25.9874 6.08895 26.0492C6.11441 26.2338 6.1424 26.4367 6.27501 26.6809C6.48295 26.2571 6.68606 25.8438 6.88569 25.4376C7.31706 24.5598 7.73213 23.7152 8.14435 22.8693C9.19487 20.7133 10.244 18.5566 11.2875 16.3972C11.4532 16.0542 11.6872 15.8769 12.0873 15.8907C12.6756 15.9111 13.2655 15.9069 13.8542 15.8927C14.2489 15.8831 14.482 16.0571 14.6494 16.405C15.2357 17.6227 15.8288 18.8371 16.4219 20.0516C16.7073 20.6361 16.9927 21.2207 17.2774 21.8055C17.607 22.4826 17.9359 23.1601 18.2648 23.8375C18.67 24.6722 19.0753 25.5068 19.4817 26.3408C19.4895 26.3568 19.4965 26.3736 19.5036 26.3908C19.5388 26.4756 19.5772 26.568 19.7311 26.6011C19.7499 26.5066 19.7686 26.4122 19.7873 26.3179C19.8259 26.123 19.8644 25.9283 19.9035 25.7338C20.033 25.0893 20.1664 24.4454 20.2998 23.8015C20.6026 22.3399 20.9054 20.8783 21.1633 19.4089C21.4075 18.0183 21.687 16.6351 21.9665 15.2519C22.1126 14.5287 22.2587 13.8056 22.3998 13.0814C22.8065 10.9936 23.2376 8.91058 23.6687 6.82751C23.8684 5.86292 24.068 4.89833 24.2652 3.93326C24.3166 3.68165 24.3649 3.42936 24.4132 3.17708C24.489 2.78095 24.5648 2.38483 24.6527 1.99132C24.7632 1.49602 24.8642 1.44281 25.372 1.54045C25.8503 1.63239 26.3277 1.72804 26.8052 1.82369ZM88.8282 11.9633C89.0998 11.9908 89.1519 12.1445 89.1476 12.3927C89.1192 14.0522 89.0967 15.7119 89.0878 17.3717C89.0669 21.2568 89.0767 25.1418 89.207 29.0255L89.2089 29.0864C89.2117 29.1792 89.2145 29.2721 89.2236 29.3644C89.2448 29.579 89.3577 29.7144 89.5821 29.733C90.2446 29.7879 90.9074 29.8399 91.5733 29.8096C91.8493 29.797 91.9908 29.6566 91.9908 29.3811C91.9908 29.2114 91.9894 29.0416 91.9855 28.8719C91.9751 28.4123 91.9639 27.9527 91.9528 27.4932L91.9527 27.4899V27.4896V27.4894V27.4891V27.4888V27.4885V27.4883C91.9274 26.4414 91.902 25.3946 91.8846 24.3475C91.8749 23.7628 91.9133 23.1725 92.0714 22.6099C92.5229 21.0021 94.0893 20.0732 95.5073 20.0467C97.0235 20.0186 98.947 21.4499 99.0527 23.3799C99.094 24.1335 99.1025 24.8867 99.1111 25.6397V25.6399V25.64V25.6402V25.6404V25.6405V25.6407V25.6409C99.1176 26.2065 99.124 26.7721 99.1443 27.3376L99.1488 27.465L99.1488 27.4656L99.1489 27.4661L99.1489 27.4667L99.1489 27.4673L99.1489 27.4679L99.149 27.4685L99.149 27.4691C99.173 28.141 99.1971 28.8131 99.2333 29.4844C99.2522 29.8359 99.3323 29.9284 99.6794 29.9406C100.238 29.9603 100.797 29.9592 101.356 29.9581H101.356L101.617 29.9577C101.867 29.9574 102 29.819 102.01 29.5704C102.015 29.4573 102.016 29.3441 102.015 29.2309C102.013 28.7063 102.012 28.1816 102.012 27.6568C102.011 26.4649 102.011 25.2729 101.982 24.0815C101.917 21.3091 100.68 19.1935 98.223 17.8526C96.341 16.8255 94.4352 16.9155 92.5642 17.941C92.5176 17.9666 92.4721 17.9948 92.4257 18.0236C92.2779 18.1154 92.1198 18.2135 91.8802 18.2529C91.8802 17.9299 91.879 17.6127 91.8778 17.2993V17.2992V17.2991V17.299V17.2989V17.2987V17.298C91.8751 16.605 91.8726 15.9314 91.8833 15.258C91.8901 14.8326 91.8889 14.4072 91.8877 13.9818C91.8854 13.1628 91.8832 12.3438 91.9379 11.5249C91.9822 10.8618 91.9707 10.1939 91.9592 9.52841V9.52823L91.9585 9.48855C91.9518 9.1035 91.8515 8.99104 91.4954 8.9826C90.765 8.96533 90.0342 8.96679 89.3035 8.96825L88.9309 8.96891C88.6887 8.96925 88.528 9.08997 88.5193 9.34224C88.511 9.58475 88.4945 9.82698 88.4781 10.0692L88.478 10.0699C88.4459 10.5423 88.4138 11.0147 88.4418 11.4892C88.4566 11.7406 88.5443 11.9345 88.8282 11.9633ZM30.8291 31.1683C31.0467 31.1551 31.2639 31.1365 31.4812 31.1179C31.8497 31.0864 32.2183 31.0549 32.5891 31.0492C32.889 31.0446 33.0294 30.8631 33.0347 30.5725L33.0358 30.5148C33.0385 30.3644 33.0413 30.214 33.041 30.0635L33.0387 28.9347V28.9346V28.9346V28.9345V28.9345V28.9344V28.9344V28.9343V28.9343V28.9342C33.0358 27.4815 33.033 26.0288 33.0262 24.5761C33.024 24.1026 33.0483 23.6301 33.1539 23.1704C33.5024 21.6534 34.4365 20.6713 35.9558 20.2812C37.222 19.956 38.7699 20.5636 39.5698 21.6813C40.032 22.3272 40.2675 23.065 40.2764 23.8563C40.2911 25.1444 40.2967 26.4327 40.3023 27.7209C40.305 28.3372 40.3076 28.9536 40.3113 29.5699C40.3124 29.7582 40.3153 29.9473 40.3328 30.1347C40.3553 30.3749 40.4954 30.5232 40.7412 30.5195C41.4244 30.5091 42.1077 30.4918 42.7902 30.4612C43.0301 30.4505 43.1663 30.2966 43.1767 30.0525C43.1839 29.883 43.1848 29.7132 43.1842 29.5435C43.1818 28.9608 43.1786 28.3781 43.1754 27.7954V27.7954V27.7953V27.7953V27.7952V27.7952C43.1687 26.5866 43.1621 25.3779 43.1627 24.1692C43.1634 22.711 42.7623 21.3903 41.9217 20.1846C39.966 17.3793 36.4335 16.5286 33.5472 18.2947C33.523 18.3095 33.4993 18.3256 33.4754 18.3419C33.3743 18.4108 33.2681 18.4831 33.098 18.4731C33.0092 18.3022 33.0171 18.1356 33.0248 17.9737C33.0269 17.929 33.029 17.8846 33.0291 17.8406C33.0312 15.9896 33.036 14.1385 33.0409 12.2874L33.0452 10.5995C33.0455 10.4675 33.0449 10.3355 33.0436 10.2035C33.041 9.93153 32.9087 9.77226 32.6289 9.77543C32.4029 9.77798 32.1768 9.77598 31.9506 9.77399H31.9506H31.9506H31.9506H31.9505H31.9505H31.9505H31.9505H31.9505H31.9504C31.3031 9.76829 30.6557 9.76258 30.0129 9.86333C29.611 9.92638 29.522 10.0094 29.506 10.413C29.4859 10.9206 29.4935 11.4294 29.5012 11.9377V11.9377V11.9378V11.9378V11.9378V11.9378V11.9378V11.9379V11.9379V11.938L29.5037 12.1094C29.5075 12.3802 29.6141 12.5892 29.9228 12.6213C30.1944 12.6494 30.2568 12.8272 30.2535 13.0592C30.2521 13.163 30.253 13.2668 30.254 13.3706V13.3706V13.3706V13.3707V13.3707V13.3707V13.3707V13.3707V13.3708V13.3708L30.254 13.3714C30.2546 13.437 30.2552 13.5027 30.2552 13.5684L30.2555 19.7456L30.256 30.0874C30.256 30.1023 30.256 30.1172 30.2559 30.1321C30.2558 30.1466 30.2557 30.1612 30.2556 30.1757L30.255 30.239V30.239V30.239V30.239V30.239V30.2391C30.2536 30.3772 30.2522 30.5155 30.2611 30.653C30.2885 31.0761 30.3944 31.1948 30.8291 31.1683ZM122.802 33.9646L122.802 33.9645L122.801 33.9645C122.158 33.8894 121.515 33.8142 120.876 33.715C119.307 33.4713 117.729 33.2941 116.152 33.1169L116.152 33.1169C115.353 33.0271 114.554 32.9373 113.756 32.8389C112.009 32.6235 110.257 32.4573 108.505 32.2911L108.505 32.2911C107.574 32.2027 106.643 32.1144 105.712 32.0187C103.291 31.7696 100.865 31.5918 98.4386 31.414L98.4385 31.414C97.7988 31.3672 97.1591 31.3203 96.5194 31.2721C94.4369 31.1152 92.3509 31.0023 90.2643 30.8967C88.4921 30.807 86.7192 30.7469 84.9463 30.6869C84.1007 30.6583 83.2552 30.6296 82.4098 30.5978C81.2793 30.5552 80.1469 30.5607 79.0146 30.5662H79.0144C78.5693 30.5684 78.1242 30.5706 77.6792 30.5698L77.2322 30.569C73.829 30.5629 70.4258 30.5567 67.0246 30.7024C66.9423 30.706 66.8599 30.7088 66.7776 30.7116C66.651 30.7159 66.5245 30.7203 66.3981 30.7272C65.8784 30.7556 65.3587 30.7834 64.839 30.8112L64.8385 30.8112C63.5005 30.8827 62.1624 30.9543 60.8249 31.0363C59.0627 31.1442 57.3007 31.2603 55.5405 31.3972C53.9134 31.5237 52.2881 31.6738 50.6635 31.8297C48.661 32.0221 46.6583 32.2158 44.6588 32.4377C43.8824 32.5239 43.1076 32.6251 42.3329 32.7262L42.3328 32.7262C41.4511 32.8413 40.5694 32.9564 39.6853 33.0495C38.0492 33.2216 36.4225 33.4594 34.7958 33.6972C33.7368 33.8521 32.6777 34.0069 31.6161 34.1436C31.2764 34.1873 30.9329 34.251 30.6175 34.4147C31.2876 34.5308 31.9501 34.4943 32.6073 34.4316C33.9448 34.304 35.2856 34.2305 36.6264 34.157L36.6274 34.157C37.2957 34.1204 37.964 34.0837 38.6318 34.0404C39.8236 33.9631 41.0169 33.9079 42.2102 33.8527L42.2107 33.8527H42.2108C42.8005 33.8254 43.3902 33.7981 43.9798 33.7682C44.8278 33.7251 45.6758 33.6801 46.5237 33.6351C48.2735 33.5423 50.0232 33.4495 51.7737 33.3733C54.0501 33.2742 56.3281 33.2051 58.6059 33.141C59.1867 33.1246 59.7675 33.1077 60.3484 33.0907H60.3485H60.3485H60.3486H60.3487H60.3488H60.3489H60.349H60.3491H60.3492C62.7298 33.021 65.1105 32.9514 67.4916 32.9263C73.9316 32.8583 80.3719 32.7974 86.8118 32.9759C87.6931 33.0004 88.5746 33.0144 89.4563 33.0284C90.3598 33.0427 91.2633 33.057 92.1668 33.0826C94.7865 33.1569 97.4059 33.234 100.025 33.3189L100.327 33.3286L100.327 33.3286C102.371 33.3948 104.415 33.461 106.458 33.5603C107.388 33.6056 108.318 33.6444 109.248 33.6832L109.25 33.6833C110.16 33.7212 111.069 33.7592 111.979 33.8031C114.217 33.9114 116.454 34.0279 118.691 34.152C119.555 34.1999 120.418 34.2552 121.28 34.3104L121.281 34.3105L121.281 34.3105L121.282 34.3105L121.283 34.3106L121.283 34.3106L121.284 34.3106L121.284 34.3107L121.285 34.3107L121.286 34.3108C121.937 34.3525 122.588 34.3942 123.239 34.4327C123.356 34.4396 123.473 34.4476 123.591 34.4556C124.151 34.4936 124.712 34.5317 125.271 34.4583L125.265 34.3313C125.138 34.3085 125.01 34.2841 124.882 34.2598L124.882 34.2598C124.601 34.2064 124.321 34.1531 124.038 34.1156C123.627 34.061 123.215 34.0128 122.802 33.9646ZM54.6663 24.9118C54.6668 24.7154 54.6674 24.519 54.665 24.3226C54.6618 24.0556 54.5211 23.9451 54.2595 23.9974C53.9804 24.0532 53.7025 24.1151 53.425 24.1783C51.9592 24.512 50.5138 24.9037 49.2155 25.6938C48.8104 25.9404 48.4153 26.2055 48.1443 26.608C47.8421 27.0567 47.9093 27.4582 48.3357 27.7976C48.725 28.1075 49.1836 28.2074 49.6669 28.2221C51.2648 28.2709 52.6877 27.7488 53.9983 26.8856C54.4639 26.579 54.7905 26.181 54.6808 25.5659C54.6652 25.4783 54.6694 25.3873 54.6736 25.2963C54.6756 25.2543 54.6775 25.2123 54.6775 25.1706H54.6658C54.6658 25.0856 54.666 25.0006 54.6663 24.9156L54.6663 24.9118ZM53.2797 21.5185L53.28 21.5184L53.2803 21.5184L53.2806 21.5183L53.2809 21.5182L53.2812 21.5182L53.2815 21.5181L53.2818 21.518L53.2821 21.5179C53.5516 21.457 53.8212 21.3961 54.0902 21.333C54.5014 21.2365 54.5534 21.1302 54.3678 20.7495C54.1367 20.2751 53.7371 19.9966 53.2349 19.8783C52.2137 19.6377 51.197 19.6908 50.2016 20.013C49.2001 20.3373 48.2885 20.8383 47.4449 21.4638C47.002 21.792 46.9907 21.7986 46.5823 21.4343C46.1729 21.0692 45.7754 20.6899 45.388 20.3018C45.0221 19.9352 45.0257 19.8473 45.4292 19.4796C46.1469 18.8255 46.9451 18.2782 47.8163 17.8494C49.1574 17.1891 50.5541 16.7228 52.0594 16.7943C52.9264 16.7604 53.7588 16.8415 54.5356 17.1866C56.5082 18.0629 57.4786 19.6238 57.5392 21.7332C57.5865 23.379 57.5745 25.027 57.5625 26.6738L57.5614 26.825C57.5583 27.2546 57.5841 27.6826 57.6099 28.1104V28.1104V28.1104V28.1105V28.1105V28.1105V28.1106V28.1106V28.1106C57.6352 28.5293 57.6605 28.9478 57.6586 29.3676C57.6556 30.0103 57.637 30.031 57.0129 30.1073C56.589 30.1592 56.1641 30.1574 55.7393 30.1556C55.5946 30.155 55.4499 30.1544 55.3052 30.1559C55.0299 30.1587 54.814 30.0722 54.7887 29.7559C54.7598 29.3965 54.5594 29.486 54.3577 29.5922C53.562 30.0118 52.7063 30.2816 51.8353 30.4648C50.3932 30.7682 48.9465 30.881 47.5194 30.3187C46.6556 29.9784 45.9558 29.4424 45.4804 28.6689C44.8082 27.5754 44.9671 26.4588 45.5775 25.393C46.019 24.6222 46.692 24.0719 47.4456 23.607C48.9507 22.6783 50.6077 22.1473 52.314 21.7407C52.6353 21.6641 52.9575 21.5913 53.2797 21.5185ZM108.774 20.1408C107.432 20.8467 106.609 21.969 106.457 23.4912C106.29 25.1646 106.873 26.5385 108.306 27.4856C110.051 28.6381 112.747 28.3233 113.831 26.0336C114.123 25.4166 114.241 24.7839 114.197 24.0846C114.303 22.9848 113.844 22.0477 113.162 21.2004C112.044 19.8111 110.259 19.36 108.774 20.1408ZM113.104 30.3224C112.351 30.6536 111.54 30.7772 110.699 30.7542C107.639 30.5694 105.286 29.2613 103.992 26.4119C103.222 24.7147 103.272 22.9607 104.029 21.254C104.644 19.8672 105.506 18.6639 106.836 17.8522C109.104 16.4674 111.403 16.3982 113.646 17.8491C116.02 19.3849 117.213 21.6192 117.155 24.433C117.096 27.2405 115.671 29.1931 113.104 30.3224ZM77.4638 29.2807C78.6286 29.8045 79.856 30.0018 81.2009 29.9426C82.1944 30.0483 83.2069 29.8034 84.1998 29.4598C84.9327 29.2062 85.5575 28.7816 86.0394 28.1739C86.8881 27.1036 86.7881 25.454 85.8295 24.3601C85.27 23.7216 84.5831 23.2637 83.8162 22.9106C82.8631 22.4717 81.8613 22.1908 80.8382 21.9663C80.0927 21.8026 79.3666 21.5699 78.7808 21.0507C78.2992 20.6238 78.2803 20.0817 78.7082 19.6059C78.9302 19.3591 79.2141 19.2118 79.5236 19.1073C81.1816 18.5475 83.1623 19.1991 83.9535 20.4461C84.1951 20.8269 84.2877 20.8423 84.7138 20.6585C85.088 20.4972 85.4554 20.3203 85.8228 20.1433L85.8229 20.1433C86.0024 20.0569 86.1819 19.9705 86.3622 19.8858C86.6035 19.7726 86.6421 19.5915 86.5293 19.3729L86.5135 19.3423L86.5134 19.3422L86.5134 19.3421C86.4149 19.1512 86.3153 18.9579 86.188 18.7863C85.3675 17.6792 84.3374 16.8483 82.9946 16.4389C82.2823 16.2217 81.5565 16.0941 80.8092 16.0926C79.1338 16.0889 77.6611 16.5789 76.5497 17.8783C75.7608 18.8006 75.3833 19.8605 75.6784 21.0791C75.9181 22.0686 76.5499 22.7901 77.3876 23.325C78.3405 23.9335 79.4051 24.2837 80.5109 24.5077C81.2396 24.6553 81.9465 24.8657 82.6243 25.1718C82.9731 25.3293 83.301 25.5214 83.5736 25.7876C83.9661 26.1707 83.9475 26.6686 83.5332 27.0229C83.4055 27.132 83.2526 27.216 83.1023 27.2949C82.117 27.8132 81.0639 27.8516 79.9948 27.6862C78.9899 27.5307 78.1556 27.0943 77.6835 26.142C77.5505 25.8734 77.354 25.8144 77.0731 25.8946C76.7902 25.9754 76.5055 26.0498 76.2207 26.1241C75.9547 26.1936 75.6886 26.263 75.4241 26.3378C74.9824 26.4625 74.9472 26.5562 75.1331 26.9896C75.5959 28.0684 76.403 28.8037 77.4638 29.2807ZM127.083 17.4733C127.976 17.4839 127.995 17.503 127.997 18.4101C127.997 18.5112 127.998 18.6123 127.999 18.7134C128.001 19.0085 128.002 19.3037 127.992 19.5984C127.976 20.059 127.881 20.1724 127.414 20.1806L127.137 20.1857C126.375 20.2002 125.612 20.2148 124.851 20.1563C124.297 20.1139 124.261 20.1385 124.259 20.6919C124.258 21.0048 124.255 21.3178 124.253 21.6308V21.6308V21.6309V21.6309V21.631V21.6315C124.245 22.6202 124.237 23.609 124.272 24.5963L124.275 24.6871L124.279 24.7985C124.3 25.4245 124.321 26.0571 124.493 26.6711C124.76 27.6178 125.29 28.2794 126.32 28.4693C126.734 28.5455 126.763 28.6102 126.771 29.0552C126.782 29.5832 126.783 30.1118 126.771 30.6397C126.761 31.1267 126.629 31.2546 126.141 31.1823C125.184 31.0405 124.305 30.692 123.575 30.0464C122.481 29.0795 121.864 27.8705 121.665 26.4206C121.575 25.7607 121.58 25.1017 121.584 24.4852C121.587 24.0975 121.59 23.7266 121.569 23.3828C121.569 23.0736 121.57 22.7813 121.57 22.5008V22.4978V22.4948V22.4919V22.489C121.571 21.8565 121.572 21.2837 121.567 20.711C121.563 20.1765 121.515 20.1302 120.978 20.1222C120.618 20.1169 120.257 20.1162 119.897 20.1154C119.535 20.1147 119.174 20.1139 118.812 20.1085C118.227 20.0998 118.162 20.0326 118.154 19.4506C118.148 18.9603 118.146 18.4696 118.156 17.9793C118.166 17.441 118.238 17.3705 118.798 17.3651C119.156 17.3617 119.514 17.3632 119.872 17.3647H119.872C120.236 17.3662 120.6 17.3677 120.965 17.3641C120.998 17.3637 121.033 17.3649 121.069 17.3661C121.275 17.3731 121.49 17.3804 121.557 17.0808C121.665 16.6022 121.553 16.267 121.183 16.1195C120.971 16.0345 120.89 15.8958 120.889 15.6897C120.888 15.0673 120.889 14.4448 120.891 13.8224C120.893 13.5474 121.037 13.4 121.314 13.4004C121.477 13.4007 121.641 13.4007 121.805 13.4007C122.458 13.4006 123.112 13.4005 123.764 13.4192C124.15 13.4302 124.245 13.5452 124.253 13.9626C124.262 14.4647 124.26 14.967 124.258 15.4694C124.258 15.6839 124.257 15.8985 124.257 16.113C124.257 16.191 124.256 16.2691 124.256 16.3471V16.3476C124.254 16.5336 124.253 16.7196 124.26 16.9053C124.277 17.3486 124.346 17.4294 124.803 17.4429C125.333 17.4586 125.864 17.4628 126.395 17.467H126.395C126.624 17.4688 126.853 17.4706 127.083 17.4733ZM59.4168 19.9797C59.7261 19.9809 60.0354 19.9787 60.3448 19.9765H60.3451C60.7384 19.9736 61.1317 19.9708 61.525 19.975C62.0123 19.9801 62.0821 20.0497 62.0893 20.5375C62.0965 21.0264 62.0949 21.5155 62.0933 22.0045C62.0926 22.2132 62.0919 22.4219 62.0919 22.6305H62.1C62.1 22.8235 62.0981 23.0166 62.0962 23.2097C62.0919 23.6391 62.0876 24.0686 62.1045 24.4972C62.1452 25.5221 62.3314 26.5119 62.8153 27.4405C63.6547 29.0515 65.4425 29.8019 67.0687 29.8085C67.44 29.8099 67.5377 29.6979 67.5596 29.3322C67.5835 28.9358 67.5398 28.5418 67.4909 28.1481L67.4891 28.1333C67.4246 27.6124 67.4244 27.6109 66.8934 27.5166C65.8358 27.3287 65.2972 26.8147 65.0731 25.7651C65.0219 25.5259 64.9747 25.282 64.9652 25.0387C64.958 24.8556 64.9506 24.6724 64.9433 24.4893L64.9432 24.4889L64.9432 24.4885V24.4884V24.4884V24.4883C64.8891 23.1462 64.835 21.8039 64.8641 20.46C64.8757 19.9249 64.9027 19.895 65.4587 19.8902C65.8165 19.8872 66.1744 19.8871 66.5322 19.8871C67.0101 19.887 67.488 19.8869 67.9658 19.8797C68.4733 19.8721 68.5701 19.7768 68.5851 19.2843C68.6001 18.7945 68.5975 18.3037 68.59 17.8136C68.5813 17.2412 68.4944 17.1491 67.9317 17.1417C67.4536 17.1355 66.9753 17.1374 66.4971 17.1393C66.2726 17.1402 66.048 17.1411 65.8235 17.1412C64.9357 17.1413 64.9342 17.141 64.9368 16.2714C64.9379 15.9428 64.9402 15.6143 64.9425 15.2857C64.9464 14.728 64.9503 14.1703 64.9479 13.6126C64.9458 13.16 64.869 13.0492 64.5037 13.0427C63.8832 13.0316 63.2624 13.0357 62.6417 13.0398C62.4267 13.0413 62.2117 13.0427 61.9968 13.0435C61.696 13.0446 61.5343 13.2048 61.5284 13.4962C61.5151 14.1558 61.5111 14.8157 61.511 15.4754C61.5109 15.6588 61.5935 15.8057 61.7836 15.8631L61.8055 15.8697C61.984 15.9232 62.1614 15.9763 62.1649 16.2121C62.1656 16.2596 62.1671 16.3072 62.1686 16.3549C62.1736 16.5154 62.1786 16.6765 62.1544 16.8328C62.1013 17.1766 61.8569 17.162 61.6269 17.1483C61.574 17.1451 61.5219 17.142 61.4731 17.1433C61.1023 17.1531 60.7312 17.1523 60.36 17.1515C60.1043 17.1509 59.8486 17.1503 59.5929 17.1532C58.8105 17.1622 58.6925 17.2766 58.6794 18.0315C58.6722 18.4463 58.6719 18.8612 58.6778 19.276C58.6869 19.9076 58.7588 19.9772 59.4168 19.9797ZM70.9338 29.8021C70.4529 29.8002 70.3464 29.6702 70.3079 29.1895C70.3049 29.152 70.3045 29.1142 70.304 29.0765C70.2892 28.042 70.2674 27.0077 70.2456 25.9733C70.1936 23.503 70.1415 21.0327 70.1841 18.5614C70.1861 18.4484 70.1891 18.3352 70.1977 18.2225C70.2181 17.9558 70.3618 17.8034 70.6344 17.801C71.2988 17.795 71.9633 17.7939 72.6277 17.7976C72.9067 17.7992 73.0414 17.9599 73.0457 18.2281C73.0512 18.5769 73.0514 18.9257 73.0516 19.2745L73.0516 19.3591C73.0521 20.1408 73.052 20.9225 73.0519 21.7043L73.0519 22.6392H73.0705C73.0705 23.0102 73.0694 23.3811 73.0683 23.7521C73.0658 24.6253 73.0632 25.4985 73.0748 26.3716C73.0822 26.9239 73.1083 27.4758 73.1344 28.0278V28.0279V28.028C73.1474 28.304 73.1604 28.5801 73.1711 28.8562C73.1758 28.9773 73.1741 29.0987 73.1725 29.2201V29.2205L73.1714 29.3085C73.1684 29.5815 73.0302 29.7276 72.7537 29.7385C72.577 29.7454 72.4003 29.7539 72.2235 29.7625C71.7936 29.7832 71.3637 29.8039 70.9338 29.8021ZM70.6818 15.6814C70.7968 15.6821 70.9119 15.6831 71.0269 15.684C71.5554 15.6884 72.084 15.6928 72.612 15.6773C72.9565 15.6673 73.0468 15.5711 73.0577 15.225C73.0647 15.0004 73.0695 14.7758 73.0744 14.5512V14.5507C73.0855 14.0435 73.0965 13.5363 73.1319 13.0292C73.1607 12.6155 73.0232 12.5009 72.588 12.4916C72.0015 12.4789 71.4141 12.4798 70.8279 12.4981C70.4031 12.5113 70.3112 12.6133 70.2921 13.0541C70.2814 13.3009 70.284 13.5483 70.2866 13.7958C70.2878 13.9056 70.2889 14.0153 70.2889 14.125H70.2721L70.2722 14.4756C70.2722 14.7345 70.2723 14.9935 70.2721 15.2525C70.2718 15.5246 70.4027 15.6796 70.6818 15.6814Z" fill="#3190FF"/>
</svg>
