<svg width="24" height="25" viewBox="0 0 24 25" fill="none" xmlns="http://www.w3.org/2000/svg">
<path fill-rule="evenodd" clip-rule="evenodd" d="M0 15.4609V5.29696C0 4.88585 0.468554 4.65041 0.798416 4.89577L12 13.228L23.2016 4.89577C23.5314 4.65041 24 4.88585 24 5.29696V15.4609H0Z" fill="#FDC926"/>
<mask id="mask0_2_16042" style="mask-type:alpha" maskUnits="userSpaceOnUse" x="0" y="4" width="24" height="12">
<path fill-rule="evenodd" clip-rule="evenodd" d="M0 15.4609V5.29696C0 4.88585 0.468554 4.65041 0.798416 4.89577L12 13.228L23.2016 4.89577C23.5314 4.65041 24 4.88585 24 5.29696V15.4609H0Z" fill="white"/>
</mask>
<g mask="url(#mask0_2_16042)">
<g opacity="0.502029" filter="url(#filter0_f_2_16042)">
<path fill-rule="evenodd" clip-rule="evenodd" d="M0.341114 13.212C0.124329 13.4019 0 13.676 0 13.9642V21C0 21.5523 0.447715 22 1 22H23C23.5523 22 24 21.5523 24 21V13.9642C24 13.676 23.8757 13.4019 23.6589 13.212L12.3294 3.28856C12.1409 3.12339 11.8591 3.12339 11.6706 3.28856L0.341114 13.212Z" fill="url(#paint0_linear_2_16042)" style="mix-blend-mode:multiply"/>
</g>
</g>
<g filter="url(#filter1_i_2_16042)">
<path fill-rule="evenodd" clip-rule="evenodd" d="M0.341114 13.212C0.124329 13.4019 0 13.676 0 13.9642V21C0 21.5523 0.447715 22 1 22H23C23.5523 22 24 21.5523 24 21V13.9642C24 13.676 23.8757 13.4019 23.6589 13.212L12.3294 3.28856C12.1409 3.12339 11.8591 3.12339 11.6706 3.28856L0.341114 13.212Z" fill="url(#paint1_linear_2_16042)"/>
</g>
<path d="M13.3606 9.648H12.5566C11.6686 10.248 10.2526 10.884 9.18459 10.944V12.324H11.0086V16.164H9.18459V18H15.1126V16.164H13.3606V9.648Z" fill="white"/>
<defs>
<filter id="filter0_f_2_16042" x="-5.43656" y="-2.27189" width="34.8731" height="29.7085" filterUnits="userSpaceOnUse" color-interpolation-filters="sRGB">
<feFlood flood-opacity="0" result="BackgroundImageFix"/>
<feBlend mode="normal" in="SourceGraphic" in2="BackgroundImageFix" result="shape"/>
<feGaussianBlur stdDeviation="2.71828" result="effect1_foregroundBlur_2_16042"/>
</filter>
<filter id="filter1_i_2_16042" x="0" y="3.16467" width="24" height="18.8353" filterUnits="userSpaceOnUse" color-interpolation-filters="sRGB">
<feFlood flood-opacity="0" result="BackgroundImageFix"/>
<feBlend mode="normal" in="SourceGraphic" in2="BackgroundImageFix" result="shape"/>
<feColorMatrix in="SourceAlpha" type="matrix" values="0 0 0 0 0 0 0 0 0 0 0 0 0 0 0 0 0 0 127 0" result="hardAlpha"/>
<feOffset/>
<feGaussianBlur stdDeviation="0.5"/>
<feComposite in2="hardAlpha" operator="arithmetic" k2="-1" k3="1"/>
<feColorMatrix type="matrix" values="0 0 0 0 1 0 0 0 0 0.944676 0 0 0 0 0.748128 0 0 0 1 0"/>
<feBlend mode="normal" in2="shape" result="effect1_innerShadow_2_16042"/>
</filter>
<linearGradient id="paint0_linear_2_16042" x1="0" y1="22" x2="24" y2="22" gradientUnits="userSpaceOnUse">
<stop stop-color="#D7B917"/>
<stop offset="1" stop-color="#C29000"/>
</linearGradient>
<linearGradient id="paint1_linear_2_16042" x1="0" y1="22" x2="24" y2="22" gradientUnits="userSpaceOnUse">
<stop stop-color="#FFE86F"/>
<stop offset="1" stop-color="#FFCD3C"/>
</linearGradient>
</defs>
</svg>
