<svg width="24" height="25" viewBox="0 0 24 25" fill="none" xmlns="http://www.w3.org/2000/svg">
<path fill-rule="evenodd" clip-rule="evenodd" d="M0 15.4609V5.29693C0 4.88582 0.468554 4.65038 0.798416 4.89574L12 13.2279L23.2016 4.89574C23.5314 4.65038 24 4.88581 24 5.29693V15.4609H0Z" fill="#D99B80"/>
<mask id="mask0_2_16060" style="mask-type:alpha" maskUnits="userSpaceOnUse" x="0" y="4" width="24" height="12">
<path fill-rule="evenodd" clip-rule="evenodd" d="M0 15.4609V5.29693C0 4.88582 0.468554 4.65038 0.798416 4.89574L12 13.2279L23.2016 4.89574C23.5314 4.65038 24 4.88581 24 5.29693V15.4609H0Z" fill="white"/>
</mask>
<g mask="url(#mask0_2_16060)">
<g filter="url(#filter0_f_2_16060)">
<path fill-rule="evenodd" clip-rule="evenodd" d="M0.341114 13.212C0.124329 13.4019 0 13.676 0 13.9642V21C0 21.5523 0.447715 22 1 22H23C23.5523 22 24 21.5523 24 21V13.9642C24 13.676 23.8757 13.4019 23.6589 13.212L12.3294 3.28856C12.1409 3.12339 11.8591 3.12339 11.6706 3.28856L0.341114 13.212Z" fill="url(#paint0_linear_2_16060)"/>
</g>
</g>
<g filter="url(#filter1_i_2_16060)">
<path fill-rule="evenodd" clip-rule="evenodd" d="M0.341114 13.212C0.124329 13.4019 0 13.676 0 13.9642V21C0 21.5523 0.447715 22 1 22H23C23.5523 22 24 21.5523 24 21V13.9642C24 13.676 23.8757 13.4019 23.6589 13.212L12.3294 3.28856C12.1409 3.12339 11.8591 3.12339 11.6706 3.28856L0.341114 13.212Z" fill="url(#paint1_linear_2_16060)"/>
</g>
<path d="M12.1966 9.648H11.8366C10.0246 9.648 8.83659 10.644 8.83659 11.892V12.192H10.8406C10.8406 11.748 11.2006 11.436 11.7886 11.436C12.3406 11.436 12.7366 11.724 12.7366 12.192C12.7366 12.78 12.3646 13.056 11.8966 13.056H10.8406V14.532H12.0886C12.5566 14.532 12.9286 14.808 12.9286 15.396C12.9286 16.104 12.5086 16.332 11.8006 16.332C11.1886 16.332 10.6846 16.176 10.6846 15.492H8.57259V15.744C8.57259 17.052 9.67659 18.12 11.6926 18.12H12.1966C14.2126 18.12 15.3166 17.052 15.3166 15.732C15.3166 14.736 14.7766 14.052 13.9366 13.74V13.644C14.6086 13.344 15.0766 12.684 15.0766 11.88C15.0766 10.656 13.9126 9.648 12.1966 9.648Z" fill="white"/>
<defs>
<filter id="filter0_f_2_16060" x="-5.43656" y="-2.27189" width="34.8731" height="29.7085" filterUnits="userSpaceOnUse" color-interpolation-filters="sRGB">
<feFlood flood-opacity="0" result="BackgroundImageFix"/>
<feBlend mode="normal" in="SourceGraphic" in2="BackgroundImageFix" result="shape"/>
<feGaussianBlur stdDeviation="2.71828" result="effect1_foregroundBlur_2_16060"/>
</filter>
<filter id="filter1_i_2_16060" x="0" y="3.16467" width="24" height="18.8353" filterUnits="userSpaceOnUse" color-interpolation-filters="sRGB">
<feFlood flood-opacity="0" result="BackgroundImageFix"/>
<feBlend mode="normal" in="SourceGraphic" in2="BackgroundImageFix" result="shape"/>
<feColorMatrix in="SourceAlpha" type="matrix" values="0 0 0 0 0 0 0 0 0 0 0 0 0 0 0 0 0 0 127 0" result="hardAlpha"/>
<feOffset/>
<feGaussianBlur stdDeviation="0.5"/>
<feComposite in2="hardAlpha" operator="arithmetic" k2="-1" k3="1"/>
<feColorMatrix type="matrix" values="0 0 0 0 0.979155 0 0 0 0 0.822612 0 0 0 0 0.753037 0 0 0 1 0"/>
<feBlend mode="normal" in2="shape" result="effect1_innerShadow_2_16060"/>
</filter>
<linearGradient id="paint0_linear_2_16060" x1="0" y1="22" x2="24" y2="22" gradientUnits="userSpaceOnUse">
<stop stop-color="#AF6D4D"/>
<stop offset="1" stop-color="#995638"/>
</linearGradient>
<linearGradient id="paint1_linear_2_16060" x1="0" y1="22" x2="24" y2="22" gradientUnits="userSpaceOnUse">
<stop stop-color="#F3B699"/>
<stop offset="1" stop-color="#C5896F"/>
</linearGradient>
</defs>
</svg>
