<svg width="14" height="14" viewBox="0 0 14 14" fill="none" xmlns="http://www.w3.org/2000/svg">
<path fill-rule="evenodd" clip-rule="evenodd" d="M7 13.125C10.3827 13.125 13.125 10.3827 13.125 7C13.125 3.61726 10.3827 0.875 7 0.875C3.61726 0.875 0.875 3.61726 0.875 7C0.875 10.3827 3.61726 13.125 7 13.125ZM5.13763 5.76966L6.38188 7.00035L5.13763 8.23016C5.05567 8.32145 5.01469 8.42631 5.01469 8.54472C5.01469 8.66314 5.05801 8.76566 5.14463 8.85229C5.23126 8.93891 5.33378 8.98223 5.45219 8.98223C5.57061 8.98223 5.67547 8.94125 5.76676 8.85929L6.99744 7.61504L8.22813 8.85929C8.35559 8.978 8.49909 9.01445 8.65863 8.96866C8.81817 8.92287 8.92069 8.82035 8.96619 8.6611C9.01169 8.50185 8.97523 8.35835 8.85682 8.2306L7.61257 6.99991L8.85682 5.76923C8.97553 5.64177 9.01199 5.49827 8.96619 5.33873C8.9204 5.17918 8.81788 5.07666 8.65863 5.03116C8.49938 4.98566 8.35588 5.02212 8.22813 5.14054L6.99744 6.38479L5.76676 5.14054C5.67547 5.05858 5.57061 5.0176 5.45219 5.0176C5.33378 5.0176 5.23126 5.06091 5.14463 5.14754C5.05801 5.23416 5.01469 5.33668 5.01469 5.4551C5.01469 5.57352 5.05567 5.67837 5.13763 5.76966Z" fill="#A8ABB2"/>
</svg>
