<svg width="20" height="20" viewBox="0 0 20 20" fill="none" xmlns="http://www.w3.org/2000/svg">
<g clip-path="url(#clip0_36_25036)">
<path d="M19 1H1V19H19V1Z" fill="white" fill-opacity="0.01"/>
<path fill-rule="evenodd" clip-rule="evenodd" d="M1.74951 8.125C1.74951 5.43263 3.93212 3.25 6.62451 3.25C7.93477 3.25 9.12417 3.76736 9.99951 4.60726C10.8749 3.76736 12.0642 3.25 13.3745 3.25C16.0669 3.25 18.2495 5.43262 18.2495 8.125C18.2495 10.4756 16.8725 12.6245 15.2668 14.2461C14.2057 15.3177 12.989 16.2161 11.8692 16.8421C11.3179 17.1504 10.7901 17.3926 10.3159 17.5569C10.2925 17.565 10.2693 17.573 10.2462 17.5807C10.2428 17.5818 10.2394 17.5829 10.2361 17.584C10.236 17.584 10.236 17.5841 10.236 17.5841L9.99951 17.6627L9.76299 17.5841C9.76298 17.5841 9.76298 17.584 9.76297 17.584C9.76156 17.5836 9.76015 17.5831 9.75875 17.5826C9.73567 17.575 9.71246 17.5671 9.68911 17.559C9.20595 17.3921 8.67541 17.1473 8.12962 16.8421L8.12966 16.842C7.00991 16.216 5.79324 15.3177 4.7322 14.2461C3.12648 12.6245 1.74951 10.4756 1.74951 8.125ZM9.9995 16.0758C9.76695 15.9866 9.51294 15.8733 9.24316 15.7364C8.1781 15.196 6.90519 14.3088 5.79807 13.1907C4.31004 11.688 3.24951 9.89941 3.24951 8.125C3.24951 6.26105 4.76055 4.75 6.62451 4.75C7.76535 4.75 8.77424 5.31534 9.3863 6.1845L9.99951 7.05529L10.6127 6.1845C11.2248 5.31534 12.2337 4.75 13.3745 4.75C15.2385 4.75 16.7495 6.26105 16.7495 8.125C16.7495 9.89941 15.689 11.688 14.201 13.1907C13.2232 14.1781 12.1162 14.9854 11.1372 15.5329L11.1372 15.5329C10.724 15.7639 10.3389 15.9457 9.9995 16.0758Z" fill="white"/>
<path fill-rule="evenodd" clip-rule="evenodd" d="M5.44034 7.51426C5.85344 7.54467 6.16367 7.90419 6.13327 8.31729C6.08341 8.99484 6.34764 9.73863 6.83109 10.4222C7.31325 11.1039 7.96159 11.6499 8.5501 11.9352C8.92282 12.1159 9.07847 12.5646 8.89777 12.9373C8.71706 13.31 8.26842 13.4656 7.8957 13.2849C7.05652 12.8781 6.21946 12.155 5.60645 11.2883C4.99472 10.4234 4.55399 9.33941 4.63732 8.20719C4.66772 7.7941 5.02725 7.48386 5.44034 7.51426Z" fill="white"/>
</g>
<defs>
<clipPath id="clip0_36_25036">
<rect width="18" height="18" fill="white" transform="translate(1 1)"/>
</clipPath>
</defs>
</svg>
