<svg width="20" height="20" viewBox="0 0 20 20" fill="none" xmlns="http://www.w3.org/2000/svg">
<path fill-rule="evenodd" clip-rule="evenodd" d="M10 13.5C12.7614 13.5 15 11.2614 15 8.5C15 5.73858 12.7614 3.5 10 3.5C7.23858 3.5 5 5.73858 5 8.5C5 11.2614 7.23858 13.5 10 13.5ZM10 15C13.5899 15 16.5 12.0899 16.5 8.5C16.5 4.91015 13.5899 2 10 2C6.41015 2 3.5 4.91015 3.5 8.5C3.5 12.0899 6.41015 15 10 15Z" fill="white"/>
<path fill-rule="evenodd" clip-rule="evenodd" d="M15 18.0493H5V16.5493H15V18.0493Z" fill="white"/>
</svg>
