<svg width="16" height="16" viewBox="0 0 16 16" fill="none" xmlns="http://www.w3.org/2000/svg">
<path d="M7.9999 2C11.5946 2 14.5852 4.58667 15.2126 8C14.5859 11.4133 11.5946 14 7.9999 14C4.40523 14 1.41456 11.4133 0.787231 8C1.4139 4.58667 4.40523 2 7.9999 2ZM7.9999 12.6667C9.35954 12.6664 10.6788 12.2045 11.7418 11.3568C12.8048 10.509 13.5485 9.32551 13.8512 8C13.5474 6.67554 12.8032 5.49334 11.7403 4.64668C10.6774 3.80003 9.35877 3.33902 7.9999 3.33902C6.64103 3.33902 5.32236 3.80003 4.25948 4.64668C3.19661 5.49334 2.45241 6.67554 2.14856 8C2.4513 9.32551 3.19501 10.509 4.25799 11.3568C5.32097 12.2045 6.64025 12.6664 7.9999 12.6667V12.6667ZM7.9999 11C7.20425 11 6.44119 10.6839 5.87858 10.1213C5.31597 9.55871 4.9999 8.79565 4.9999 8C4.9999 7.20435 5.31597 6.44129 5.87858 5.87868C6.44119 5.31607 7.20425 5 7.9999 5C8.79555 5 9.55861 5.31607 10.1212 5.87868C10.6838 6.44129 10.9999 7.20435 10.9999 8C10.9999 8.79565 10.6838 9.55871 10.1212 10.1213C9.55861 10.6839 8.79555 11 7.9999 11ZM7.9999 9.66667C8.44192 9.66667 8.86585 9.49107 9.17841 9.17851C9.49097 8.86595 9.66656 8.44203 9.66656 8C9.66656 7.55797 9.49097 7.13405 9.17841 6.82149C8.86585 6.50893 8.44192 6.33333 7.9999 6.33333C7.55787 6.33333 7.13395 6.50893 6.82139 6.82149C6.50883 7.13405 6.33323 7.55797 6.33323 8C6.33323 8.44203 6.50883 8.86595 6.82139 9.17851C7.13395 9.49107 7.55787 9.66667 7.9999 9.66667Z" fill="#A8ABB2"/>
</svg>
