<svg width="16" height="16" viewBox="0 0 16 16" fill="none" xmlns="http://www.w3.org/2000/svg">
<path d="M11.9211 12.8647C10.7486 13.6084 9.38826 14.0022 7.99977 14C4.40511 14 1.41444 11.4133 0.787109 8.00001C1.0738 6.44716 1.85486 5.02861 3.01378 3.95601L0.927776 1.87201L1.87111 0.92868L15.0704 14.1287L14.1271 15.0713L11.9204 12.8647H11.9211ZM3.95644 4.90001C3.05045 5.72374 2.41932 6.80587 2.14844 8.00001C2.35664 8.91098 2.77462 9.76078 3.36911 10.4817C3.9636 11.2027 4.71819 11.7749 5.57281 12.1529C6.42743 12.5308 7.35847 12.7041 8.29183 12.6588C9.2252 12.6135 10.1351 12.3509 10.9491 11.892L9.59711 10.54C9.02157 10.9026 8.33991 11.0587 7.66393 10.983C6.98796 10.9072 6.3578 10.6039 5.87682 10.123C5.39584 9.64199 5.09259 9.01183 5.01682 8.33585C4.94104 7.65988 5.09723 6.97822 5.45978 6.40268L3.95644 4.90001ZM8.60911 9.55201L6.44778 7.39068C6.32915 7.69264 6.30123 8.02265 6.36745 8.34024C6.43366 8.65784 6.59112 8.9492 6.82052 9.1786C7.04992 9.408 7.34129 9.56546 7.65888 9.63168C7.97647 9.69789 8.30649 9.66997 8.60844 9.55135L8.60911 9.55201ZM13.8711 11.0613L12.9171 10.108C13.3628 9.47288 13.68 8.7568 13.8511 8.00001C13.6699 7.2065 13.3293 6.45811 12.8499 5.80034C12.3705 5.14257 11.7623 4.58916 11.0624 4.17375C10.3624 3.75833 9.5853 3.48959 8.77826 3.38386C7.97122 3.27812 7.15111 3.3376 6.36778 3.55868L5.31578 2.50668C6.14711 2.18001 7.05311 2.00001 7.99977 2.00001C11.5944 2.00001 14.5851 4.58668 15.2124 8.00001C15.0082 9.11048 14.549 10.1584 13.8711 11.0613ZM7.81511 5.00535C8.23945 4.97912 8.66452 5.04339 9.06214 5.19389C9.45976 5.34439 9.82085 5.57769 10.1215 5.87831C10.4221 6.17894 10.6554 6.54003 10.8059 6.93765C10.9564 7.33527 11.0207 7.76034 10.9944 8.18468L7.81444 5.00535H7.81511Z" fill="#A8ABB2"/>
</svg>
